<?xml version="1.0" encoding="UTF-8"?>
<svg width="85px" height="120px" viewBox="0 0 85 120" version="1.1" xmlns="http://www.w3.org/2000/svg" xmlns:xlink="http://www.w3.org/1999/xlink">
    <!-- Generator: Sketch 51.2 (57519) - http://www.bohemiancoding.com/sketch -->
    <title>Group 21</title>
    <desc>Created with Sketch.</desc>
    <defs></defs>
    <g id="Page-1" stroke="none" stroke-width="1" fill="none" fill-rule="evenodd">
        <g id="Desktop-HD-Copy-4" transform="translate(-159.000000, -2410.000000)" stroke="#0086FF">
            <g id="Group-21" transform="translate(160.000000, 2411.000000)">
                <g id="Group-28" transform="translate(0.982820, 0.284324)">
                    <path d="M16.2304502,81.6570598 L16.229743,81.6570598 C7.41405776,81.6570598 0.267313414,73.5704754 0.267313414,63.5950177 L0.267313414,18.8009271 C0.267313414,8.82476215 15.1661468,0.738177791 16.229743,0.738177791 L16.2304502,0.738177791 C17.542266,0.738177791 32.1928798,8.82476215 32.1928798,18.8009271 L32.1928798,63.5950177 C32.1928798,73.5704754 25.0461354,81.6570598 16.2304502,81.6570598 Z" id="Stroke-1" stroke-width="3.5"></path>
                    <path d="M0.280254778,16.7938135 L32.1796555,16.7938135" id="Stroke-3" stroke-width="3.5"></path>
                    <polygon id="Stroke-5" stroke-width="3.5" points="32.1675628 60.4372543 49.0832688 60.4372543 49.0832688 23.1922924 32.1675628 23.1922924"></polygon>
                    <path d="M18.4606078,33.9396832 C18.4606078,35.1718708 17.4617891,36.1698409 16.2296016,36.1698409 C14.9982626,36.1698409 13.9994439,35.1718708 13.9994439,33.9396832 C13.9994439,32.7074957 14.9982626,31.7095256 16.2296016,31.7095256 C17.4617891,31.7095256 18.4606078,32.7074957 18.4606078,33.9396832 Z" id="Stroke-7" stroke-width="3.5"></path>
                    <path d="M67.359979,33.9396832 C67.359979,35.1718708 66.3611603,36.1698409 65.1289727,36.1698409 C63.8976338,36.1698409 62.8988151,35.1718708 62.8988151,33.9396832 C62.8988151,32.7074957 63.8976338,31.7095256 65.1289727,31.7095256 C66.3611603,31.7095256 67.359979,32.7074957 67.359979,33.9396832 Z" id="Stroke-7-Copy" stroke-width="3"></path>
                    <path d="M18.4606078,45.1957844 C18.4606078,46.4279719 17.4617891,47.425942 16.2296016,47.425942 C14.9982626,47.425942 13.9994439,46.4279719 13.9994439,45.1957844 C13.9994439,43.9635968 14.9982626,42.9656267 16.2296016,42.9656267 C17.4617891,42.9656267 18.4606078,43.9635968 18.4606078,45.1957844 Z" id="Stroke-8" stroke-width="3.5"></path>
                    <path d="M67.359979,45.1957844 C67.359979,46.4279719 66.3611603,47.425942 65.1289727,47.425942 C63.8976338,47.425942 62.8988151,46.4279719 62.8988151,45.1957844 C62.8988151,43.9635968 63.8976338,42.9656267 65.1289727,42.9656267 C66.3611603,42.9656267 67.359979,43.9635968 67.359979,45.1957844 Z" id="Stroke-8-Copy" stroke-width="3"></path>
                    <path d="M17.8067507,54.4079138 C18.6774287,55.2785918 18.6774287,56.6906855 17.8067507,57.5622121 C16.9360727,58.43289 15.523979,58.43289 14.6524524,57.5622121 C13.7817744,56.6906855 13.7817744,55.2785918 14.6524524,54.4079138 C15.523979,53.5372358 16.9360727,53.5372358 17.8067507,54.4079138 Z" id="Stroke-9" stroke-width="3.5"></path>
                    <path d="M66.7061219,54.4079138 C67.5767998,55.2785918 67.5767998,56.6906855 66.7061219,57.5622121 C65.8354439,58.43289 64.4233502,58.43289 63.5518236,57.5622121 C62.6811456,56.6906855 62.6811456,55.2785918 63.5518236,54.4079138 C64.4233502,53.5372358 65.8354439,53.5372358 66.7061219,54.4079138 Z" id="Stroke-9-Copy" stroke-width="3"></path>
                    <path d="M65.1293575,81.6570598 C56.3129651,81.6570598 49.1662208,73.5704754 49.1662208,63.5950177 L49.1662208,18.8009271 C49.1662208,8.82476215 64.0650541,0.738177791 65.1293575,0.738177791 C66.4411734,0.738177791 81.0917871,8.82476215 81.0917871,18.8009271 L81.0917871,63.5950177 C81.0917871,73.5704754 73.94575,81.6570598 65.1293575,81.6570598 Z" id="Stroke-10" stroke-width="3.5"></path>
                    <path d="M49.1798693,16.7938135 L81.0785629,16.7938135" id="Stroke-11" stroke-width="3.5"></path>
                    <polygon id="Stroke-16" stroke-width="3.5" stroke-linejoin="round" points="75.9241521 82.3197881 53.7654259 82.3197881 50.1722527 90.6885366 80.0505377 90.6885366"></polygon>
                    <polygon id="Stroke-19" stroke-width="3.5" stroke-linejoin="round" points="27.0246083 82.3197881 4.86658921 82.3197881 1.27270887 90.6885366 31.1509939 90.6885366"></polygon>
                </g>
                <path d="M8.48171801,98.2937374 L8.48171801,114.793737" id="Line-6" stroke-width="3.5" stroke-linecap="round" stroke-linejoin="round"></path>
                <path d="M57.5107593,96.026937 L57.5107593,112.526937" id="Line-6-Copy-4" stroke-width="3.5" stroke-linecap="round" stroke-linejoin="round"></path>
                <path d="M13.9323039,96.026937 L13.9323039,103.793737" id="Line-6-Copy" stroke-width="3.5" stroke-linecap="round" stroke-linejoin="round"></path>
                <path d="M62.9613452,93.7601365 L62.9613452,101.526937" id="Line-6-Copy-5" stroke-width="3.5" stroke-linecap="round" stroke-linejoin="round"></path>
                <path d="M75.8032458,93.7601365 L75.8032458,100.360137" id="Line-6-Copy-6" stroke-width="3.5" stroke-linecap="round" stroke-linejoin="round"></path>
                <path d="M26.6722995,97.126937 L26.6722995,103.726937" id="Line-6-Copy-9" stroke-width="3.5" stroke-linecap="round" stroke-linejoin="round"></path>
                <path d="M75.9003499,109.226937 L75.9003499,113.024663" id="Line-6-Copy-8" stroke-width="3.5" stroke-linecap="round" stroke-linejoin="round"></path>
                <path d="M26.7694036,112.593737 L26.7694036,116.391464" id="Line-6-Copy-10" stroke-width="3.5" stroke-linecap="round" stroke-linejoin="round"></path>
                <path d="M20.0546347,101.593737 L20.0546347,114.860538" id="Line-6-Copy-2" stroke-width="3.5" stroke-linecap="round" stroke-linejoin="round"></path>
                <path d="M69.083676,99.326937 L69.083676,112.593737" id="Line-6-Copy-7" stroke-width="3.5" stroke-linecap="round" stroke-linejoin="round"></path>
            </g>
        </g>
    </g>
</svg>