<svg xmlns="http://www.w3.org/2000/svg" viewBox="0 0 6651.16 816.38"><defs><style>.cls-1,.cls-2,.cls-3{fill:#fff;isolation:isolate;}.cls-1{opacity:0.08;}.cls-2{opacity:0.28;}</style></defs><title>shapes</title><g id="Layer_2" data-name="Layer 2"><g id="Layer_1-2" data-name="Layer 1"><path class="cls-1" d="M0,332.74S528.09-234.52,1753.26,112.29,2920.38,413.39,3456.4,347.52s550-144.34,816.66-144.34,519.43,294.9,736,238.44,459.45-329.33,900.4-329.33,741.74,509.45,741.74,509.45H6120.65l-2619.36-35L63.37,667.45"/><path class="cls-2" d="M597.76,429.35s657-655.92,1717.22-254.91,810,348.17,1273.86,272,491-156.71,721.81-156.71,434.42,330.79,621.81,265.51,397.6-380.81,779.18-380.81,340.46,306.2,340.46,306.2L5894.43,763.53,3627.7,723.12,652.6,816.38"/><path class="cls-3" d="M1652.34,474.48s272.37-327,904.29-127.1S3158.61,521,3435.08,483s283.64-83.22,421.2-83.22,267.91,170,379.59,137.47,237-189.87,464.41-189.87,202.93,152.67,202.93,152.67l-94,141.05-1352.62-6.71L1685,667.45"/></g></g></svg>