<svg viewBox="0 0 96 96" xmlns="http://www.w3.org/2000/svg" xmlns:xlink="http://www.w3.org/1999/xlink" id="Icons_FarmScene" overflow="hidden"><path d="M87.6 44C87.1038 44 86.6571 43.6995 86.47 43.24L78.73 25 62.24 18.2 45.77 25 38.2 43.07C37.9239 43.6968 37.1918 43.9811 36.565 43.705 35.9382 43.4289 35.6539 42.6968 35.93 42.07L43.93 23.07 62.28 15.5 80.6 23.09 88.74 42.27C89.0033 42.8996 88.7083 43.6236 88.08 43.89 87.9279 43.9554 87.7653 43.9926 87.6 44Z" fill="#70AD47"/><path d="M49 61 59.13 54.46 49 48 49 61Z" fill="#70AD47"/><path d="M52.55 47 62 53 72.11 47 52.55 47Z" fill="#70AD47"/><path d="M75 61 75 48 64.7 54.46 75 61Z" fill="#70AD47"/><path d="M83 63.81 83 43.05 77.13 26.27 62.25 20 47.39 26.3 41 43 41 64.67C42.9325 63.7134 44.939 62.9141 47 62.28L47 46C47 45.32 48.32 45 49 45L75 45C75.68 45 77 45.32 77 46L77 61.76C79.0471 62.2967 81.0525 62.9818 83 63.81ZM71 38.69C71 39.4135 70.4135 40 69.69 40L54.31 40C53.5865 40 53 39.4135 53 38.69L53 29.06C53.0054 28.4768 53.4768 28.0054 54.06 28L69.56 28C70.3497 27.9945 70.9945 28.6302 71 29.4199 71 29.4266 71 29.4333 71 29.44Z" fill="#70AD47"/><rect x="55" y="30" width="14" height="8" fill="#70AD47"/><rect x="5" y="22" width="5" height="2" fill="#70AD47"/><path d="M11.84 18.34 8.36 14.79 9.78 13.34 13.25 16.89 11.84 18.34Z" fill="#70AD47"/><circle cx="18" cy="23.12" r="6" fill="#70AD47"/><rect x="17" y="10" width="2" height="5" fill="#70AD47"/><rect x="26" y="22" width="5" height="2" fill="#70AD47"/><path d="M24.16 18.34 27.64 14.79 26.22 13.34 22.75 16.89 24.16 18.34Z" fill="#70AD47"/><path d="M11.84 27.77 8.36 31.33 9.78 32.77 13.25 29.22 11.84 27.77Z" fill="#70AD47"/><rect x="17" y="31.12" width="2" height="5" fill="#70AD47"/><path d="M24.16 27.77 27.64 31.33 26.22 32.77 22.75 29.22 24.16 27.77Z" fill="#70AD47"/><path d="M63 60C65.1686 60.0013 67.3353 60.1249 69.49 60.37L62 56 54.82 60.57C57.5301 60.1905 60.2634 60.0001 63 60Z" fill="#70AD47"/><path d="M12.59 73C28.59 72 36.97 67 37.59 66.71 38.3502 66.1818 39.138 65.6945 39.95 65.25 27.6 52.63 5 54.14 5 54.14L5 73Z" fill="#70AD47"/><path d="M91 72.05 87.46 69.76C81.82 65.5 72.65 63 63 63 53.62 63 44.94 65.29 39.24 69.25 39.14 69.32 30.35 74.92 12.73 76.04L5 76.04 5 85.04 91 85.04Z" fill="#70AD47"/></svg>