<svg viewBox="0 0 96 96" xmlns="http://www.w3.org/2000/svg" xmlns:xlink="http://www.w3.org/1999/xlink" id="Icons_MuscleArm" overflow="hidden"><path d="M43 9.33C41.47 9.49 36 16.41 37.67 19.33 40.06 23.5 45.4 22.89 48.57 22.39 51.74 21.89 52.06 20.21 54.06 21.39 56.06 22.57 60.5 26.84 60.83 30.51 61.16 34.18 61.31 42.33 62 45.17 62.69 48.01 64 52.38 62.68 53.33 60.92 54.56 56.57 50.19 50.13 50.19 43.13 50.19 40.13 55.67 38.68 55.67 36.68 55.67 34.68 52.26 27.88 52.26 19.88 52.26 15.18 60.44 15.18 60.44L15.18 81.69C15.18 81.69 21.26 87.88 28.76 87.88 34.04 87.88 38.48 84.25 41.01 83.88 43.54 83.51 48.83 85.03 52.31 84.45 60.31 83.11 67.31 76.95 71.63 74.11 75.95 71.27 82.5 67.83 84 66.17 85.5 64.51 83.67 54.17 79 41.5 74.33 28.83 63.5 14.33 60.67 12.5 57.84 10.67 47.83 8.83 43 9.33Z" fill="#70AD47"/></svg>