<svg viewBox="0 0 96 96" xmlns="http://www.w3.org/2000/svg" xmlns:xlink="http://www.w3.org/1999/xlink" id="Icons_Grain" overflow="hidden"><path d="M33.09 69.45C18.09 85.22 7.74 85.45 7.3 85.45L7.3 80.45C7.39 80.45 16.3 80.04 29.52 66.03L29.52 66.03 29.57 66.03 60.3 35.17C61.2607 34.1783 62.8434 34.1531 63.8351 35.1138 64.8268 36.0744 64.852 37.6571 63.8913 38.6488 63.8712 38.6696 63.8508 38.69 63.83 38.71Z" fill="#70AD47"/><path d="M80.1 29.52C85.17 24.44 84.69 14.31 84.69 14.31 84.69 14.31 74.57 13.83 69.49 18.91 64.41 23.99 65.6 33.4 65.6 33.4 65.6 33.4 75 34.59 80.1 29.52Z" fill="#70AD47"/><path d="M60.68 52.4C53.5 52.26 46.54 59.62 46.54 59.62 46.54 59.62 53.21 67.26 60.39 67.4 67.57 67.54 73.53 60.16 73.53 60.16 73.53 60.16 67.86 52.54 60.68 52.4Z" fill="#70AD47"/><path d="M46.54 66.54C39.36 66.4 32.39 73.77 32.39 73.77 32.39 73.77 39.07 81.4 46.24 81.54 53.41 81.68 59.39 74.3 59.39 74.3 59.39 74.3 53.72 66.68 46.54 66.54Z" fill="#70AD47"/><path d="M74.82 38.26C67.65 38.12 60.68 45.48 60.68 45.48 60.68 45.48 67.35 53.11 74.53 53.26 81.71 53.41 87.67 46 87.67 46 87.67 46 82 38.4 74.82 38.26Z" fill="#70AD47"/><path d="M39.36 52.45C39.36 52.45 46.73 45.45 46.58 38.3 46.43 31.15 38.83 25.45 38.83 25.45 38.83 25.45 31.44 31.45 31.59 38.6 31.74 45.75 39.36 52.45 39.36 52.45Z" fill="#70AD47"/><path d="M25.22 66.59C25.22 66.59 32.58 59.59 32.44 52.45 32.3 45.31 24.69 39.6 24.69 39.6 24.69 39.6 17.3 45.6 17.44 52.74 17.58 59.88 25.22 66.59 25.22 66.59Z" fill="#70AD47"/><path d="M53.5 38.31C53.5 38.31 60.87 31.31 60.73 24.16 60.59 17.01 53 11.31 53 11.31 53 11.31 45.62 17.31 45.76 24.46 45.9 31.61 53.5 38.31 53.5 38.31Z" fill="#70AD47"/></svg>