<?xml version="1.0" encoding="iso-8859-1"?>
<!-- Generator: Adobe Illustrator 19.0.0, SVG Export Plug-In . SVG Version: 6.00 Build 0)  -->
<svg version="1.1" id="Capa_1" xmlns="http://www.w3.org/2000/svg" xmlns:xlink="http://www.w3.org/1999/xlink" x="0px" y="0px"
	 viewBox="0 0 496 496" style="enable-background:new 0 0 496 496;" xml:space="preserve">
<g>
	<g>
		<path d="M372.568,299.488c1.736-3.872,3.56-7.696,5.496-11.488H420c41.904,0,76-34.096,76-76s-34.096-76-76-76h-5.824
			c-5.848-12.712-26.088-22.864-60.504-30.216l-3.344,15.64C386.512,129.168,400,139.384,400,144c0,10.856-53.648,32-152,32
			S96,154.856,96,144c0-4.616,13.488-14.832,49.672-22.576l-3.344-15.64C100.968,114.624,80,127.488,80,144
			c0,71.96,17.448,105.024,32.832,134.184c1.552,2.944,3.08,5.84,4.568,8.736C101.768,277.52,83.536,272,64,272H40v24
			c0,9.984,1.496,19.616,4.136,28.768C7.672,343.128,0,362.752,0,376c0,27.312,35.688,55.704,103.592,72.608l0.824,1.92l9.36,28.08
			l4.16,1.12C157.616,490.376,202.6,496,248,496c45.4,0,90.384-5.624,130.072-16.272l4.16-1.12l9.24-27.736l0.864-2.248
			C460.288,431.728,496,403.328,496,376C496,343.4,449.896,314.904,372.568,299.488z M415.88,152H420c33.088,0,60,26.912,60,60
			s-26.912,60-60,60h-33.584C400.312,245.352,414.712,213.56,415.88,152z M96.648,166.472C125.752,183.872,188.52,192,248,192
			s122.248-8.128,151.352-25.528c-3.072,52.512-16.896,78.784-30.336,104.256C356.152,295.104,344,318.128,344,360
			c0,8.464-36.448,24-96,24c-5.472,0-10.848-0.168-16.136-0.424C260.76,365.08,280,332.776,280,296v-24h-24
			c-43.2,0-80.312,26.488-96,64.064c-3.856-9.232-9.008-17.776-15.224-25.44l-0.24-1.104c-4.688-14.416-10.936-26.256-17.552-38.8
			C113.544,245.256,99.72,218.976,96.648,166.472z M226.344,314.344l-58.168,58.168C170.032,325.608,208.656,288,256,288h8v8
			c0,47.344-37.608,85.968-84.512,87.824l58.168-58.168L226.344,314.344z M56,288h8c47.344,0,85.968,37.608,87.824,84.512
			l-58.168-58.168l-11.312,11.312l58.168,58.168C93.608,381.968,56,343.344,56,296V288z M369.784,465.36
			c-74.672,19.168-168.888,19.168-243.56,0l-4.216-12.608C156.912,459.784,199,464,248,464c49.072,0,91.216-4.224,126.16-11.28
			L369.784,465.36z M248,448c-136.72,0-232-37.944-232-72c0-12.072,12.048-24.856,33.832-36.136C66.424,375.32,102.344,400,144,400
			h8h16h8c9.056,0,17.8-1.28,26.176-3.472l4.808,0.952c13.032,1.68,26.84,2.52,41.016,2.52c55.656,0,112-13.744,112-40
			c0-18.536,2.592-32.84,6.664-45.408C435.52,327.896,480,351.992,480,376C480,410.056,384.72,448,248,448z"/>
	</g>
</g>
<g>
	<g>
		<path d="M188.44,57.328c-7.944-5.296-12.44-8.584-12.44-14.68c0-6.088,4.496-9.376,12.44-14.672C197.16,22.168,208,14.944,208,0
			h-16c0,6.08-4.496,9.368-12.44,14.664C170.848,20.472,160,27.704,160,42.648c0,14.944,10.84,22.176,19.56,27.992
			c7.944,5.296,12.44,8.584,12.44,14.68s-4.496,9.392-12.44,14.688C170.84,105.824,160,113.056,160,128h16
			c0-6.088,4.496-9.384,12.44-14.68c8.72-5.816,19.56-13.048,19.56-28C208,70.376,197.16,63.144,188.44,57.328z"/>
	</g>
</g>
<g>
	<g>
		<path d="M252.44,57.328c-7.944-5.296-12.44-8.584-12.44-14.68c0-6.088,4.496-9.376,12.44-14.672C261.16,22.168,272,14.944,272,0
			h-16c0,6.08-4.496,9.368-12.44,14.664C234.848,20.472,224,27.704,224,42.648c0,14.944,10.84,22.176,19.56,27.992
			c7.944,5.296,12.44,8.584,12.44,14.68s-4.496,9.392-12.44,14.688C234.84,105.824,224,113.056,224,128h16
			c0-6.088,4.496-9.384,12.44-14.68c8.72-5.816,19.56-13.048,19.56-28C272,70.376,261.16,63.144,252.44,57.328z"/>
	</g>
</g>
<g>
	<g>
		<path d="M316.44,57.328c-7.944-5.296-12.44-8.584-12.44-14.68c0-6.088,4.496-9.376,12.44-14.672C325.16,22.168,336,14.944,336,0
			h-16c0,6.08-4.496,9.368-12.44,14.664C298.848,20.472,288,27.704,288,42.648c0,14.944,10.84,22.176,19.56,27.992
			c7.944,5.296,12.44,8.584,12.44,14.68s-4.496,9.392-12.44,14.688C298.84,105.824,288,113.056,288,128h16
			c0-6.088,4.496-9.384,12.44-14.68c8.72-5.816,19.56-13.048,19.56-28C336,70.376,325.16,63.144,316.44,57.328z"/>
	</g>
</g>
<g>
</g>
<g>
</g>
<g>
</g>
<g>
</g>
<g>
</g>
<g>
</g>
<g>
</g>
<g>
</g>
<g>
</g>
<g>
</g>
<g>
</g>
<g>
</g>
<g>
</g>
<g>
</g>
<g>
</g>
</svg>
