<svg xmlns="http://www.w3.org/2000/svg" viewBox="0 0 26 26"><defs><style>.cls-1{isolation:isolate;}.cls-2{fill:none;stroke:#fff;stroke-miterlimit:10;stroke-width:2px;}</style></defs><title>icon-phone</title><g id="Layer_2" data-name="Layer 2"><g id="Layer_1-2" data-name="Layer 1"><g class="cls-1"><path class="cls-2" d="M1.87,2.15,6.75,1A1.13,1.13,0,0,1,8,1.68l2.25,5.25A1.13,1.13,0,0,1,10,8.24L7.12,10.57a17.4,17.4,0,0,0,8.31,8.3L17.75,16a1.13,1.13,0,0,1,1.32-.32L24.32,18A1.13,1.13,0,0,1,25,19.25l-1.12,4.88a1.12,1.12,0,0,1-1.1.87A21.75,21.75,0,0,1,1,3.25,1.13,1.13,0,0,1,1.87,2.15Z"/></g></g></g></svg>