<svg xmlns="http://www.w3.org/2000/svg" viewBox="0 0 962.48 808.23"><title>Asset 1</title><g id="Layer_2" data-name="Layer 2"><g id="Layer_1-2" data-name="Layer 1"><path d="M251.65,808.23c-.93-99.12-9.83-141.24,35-184.83,49.8-48.48,142-25.08,202.79-30.35,199-8,230.33,17.63,220.19,215.18Z"/><path d="M.7,808.23c1.43-46.42-4-95.09,2.85-141.65,19.61-63.2,74.42-65.34,122-63.52,45.82.47,90.36-1.06,136.09.71C195.93,661.4,219.38,739.17,216,808.23Z"/><path d="M746.92,808.23c-2.57-100.82,14.67-144.86-45.46-204.53,247.14-1.47,266.78-25.72,260,204.53Z"/><path d="M463.8,149.13c-6.56,156-161,152.28-268.4,186,35-60.46,46.58-55,27.72-67.75-85-65.58-71.65-184.4,1.59-238.54C328.61-42.58,460.72,26.71,463.8,149.13Zm-100.43-3.51c1.71,31.09,42.75,27.68,43.67.42C405,116.36,364.14,118.31,363.37,145.62Zm-47.83-21.38c-28.91,1.82-27.59,40.31-2.27,43.64C345.22,169.38,344.15,124.91,315.54,124.24Zm-48.75,21.64c-2.28-30.25-43-26.84-43.55.43C225.67,176.67,266.2,173.15,266.79,145.88Z"/><path d="M480.86,291.25c173,9.2,166.61,250.8-.87,256.21C307.82,537.56,313.48,297.05,480.86,291.25Z"/><path d="M549.73,196.56c2.17-91.85,95.61-137,169.15-94.78,68.67,40.11,71.42,139.22,7.75,185.27-13.31,6.39,22.53,39.42,23.15,48.15C644.28,306.19,555.62,308,549.73,196.56Zm109.53,14C679.94,210,680,182.18,662,179.08,638.4,176.14,638,210.22,659.26,210.59ZM728,194.9c-.79-21.87-31.19-20.16-31.64-.25C697,216.42,727.61,214.84,728,194.9ZM608.6,210.59c22.16-.79,19.67-30.84.21-31.69C587.18,179.88,588.6,210.08,608.6,210.59Z"/><path d="M181.32,364.67c134.72,7.39,131.42,196.49.33,201.75C44,559.78,50,369.7,181.32,364.67Z"/><path d="M680.41,466c7.33-136,195.77-129.95,200.68.38C873.4,601.74,685.16,596.52,680.41,466Z"/></g></g></svg>