<?xml version="1.0" encoding="utf-8"?>
<!-- Svg Vector Icons : http://www.onlinewebfonts.com/icon -->
<!DOCTYPE svg PUBLIC "-//W3C//DTD SVG 1.1//EN" "http://www.w3.org/Graphics/SVG/1.1/DTD/svg11.dtd">
<svg version="1.1" xmlns="http://www.w3.org/2000/svg" xmlns:xlink="http://www.w3.org/1999/xlink" x="0px" y="0px" viewBox="0 0 1000 1000" enable-background="new 0 0 1000 1000" xml:space="preserve">
<metadata> Svg Vector Icons : http://www.onlinewebfonts.com/icon </metadata>
<g><g transform="translate(0.000000,511.000000) scale(0.100000,-0.100000)"><path d="M780.6,4038.1c-283-91.2-542.6-339.1-638.5-615.1c-39.8-114.6-42.1-238.6-42.1-1946c0-1735.5,2.3-1829,44.4-1941.3c152-399.9,523.9-666.6,928.5-666.6h138v-701.7c0-769.5,2.3-781.2,140.3-895.8c91.2-77.2,210.5-100.6,334.5-63.2c81.9,23.4,226.9,154.4,916.9,844.4l818.6,816.3h1625.5c1010.4,0,1665.3,9.4,1728.5,25.7c362.5,81.9,671.3,399.9,748.5,764.8c35.1,173.1,35.1,3463.9,0,3634.7c-74.9,348.5-336.8,640.9-666.6,743.8c-152,46.8-205.8,46.8-3047.6,44.4C1042.6,4082.5,911.6,4080.2,780.6,4038.1z"/><path d="M8092,1788.1l7-311.1l446.7-11.7c435.1-11.7,449.1-14,540.3-74.8c56.1-37.4,114.6-102.9,145-163.7c49.1-102.9,49.1-124,49.1-1459.5c0-1272.4-4.7-1358.9-44.5-1450.1c-49.1-105.3-156.7-198.8-280.7-240.9c-44.4-14-182.4-25.7-308.7-25.7h-231.6V-2574v-626.8L7788-2574l-624.5,624.5H5870.1c-914.5,0-1326.2,7-1403.3,28.1c-79.5,18.7-138,56.2-217.5,140.3l-107.6,112.3H3896c-226.9,0-247.9-4.7-297-56.1c-51.5-53.8-51.5-56.2-11.7-156.7c142.7-362.5,481.8-624.5,877.1-676c95.9-11.7,682.9-23.4,1307.4-23.4h1134.4l584.7-587.1c322.8-322.8,624.5-605.8,675.9-633.9c119.3-60.8,313.4-79.5,446.7-42.1c128.6,35.1,299.4,180.1,369.5,313.4c46.8,86.5,51.5,135.6,58.5,540.3l9.4,444.4l131,42.1c278.3,88.9,542.6,343.8,664.3,640.9l53.8,135.6v1496.9v1496.9l-53.8,133.3c-112.3,276-355.5,521.6-629.2,629.2c-124,49.1-180.1,56.1-633.8,63.1l-498.2,7L8092,1788.1z"/></g></g>
</svg>