<?xml version="1.0" encoding="utf-8"?>
<!-- Svg Vector Icons : http://www.onlinewebfonts.com/icon -->
<!DOCTYPE svg PUBLIC "-//W3C//DTD SVG 1.1//EN" "http://www.w3.org/Graphics/SVG/1.1/DTD/svg11.dtd">
<svg version="1.1" xmlns="http://www.w3.org/2000/svg" xmlns:xlink="http://www.w3.org/1999/xlink" x="0px" y="0px" viewBox="0 0 1000 1000" enable-background="new 0 0 1000 1000" xml:space="preserve">
<metadata> Svg Vector Icons : http://www.onlinewebfonts.com/icon </metadata>
<g><g transform="translate(0.000000,511.000000) scale(0.100000,-0.100000)"><path d="M5049.9,3616.8v-479h199.6h199.6v-185.6v-187.6l-131.7-23.9c-313.4-57.9-812.3-263.5-1103.8-457.1c-67.9-45.9-131.7-83.8-139.7-83.8s-57.9,45.9-111.8,99.8l-97.8,99.8L3998,2535c73.9,73.9,133.7,143.7,133.7,153.7c0,12-147.7,167.7-329.3,349.3l-329.3,329.3l-678.6-678.6l-678.6-678.6l339.3-339.3l339.3-339.3l139.7,139.7l139.7,137.7l99.8-97.8c53.9-53.9,99.8-103.8,99.8-111.8c0-8-37.9-71.9-83.8-139.7c-117.8-177.6-281.4-514.9-353.3-730.5c-403.2-1185.6-109.8-2461,774.4-3385.1c499-520.9,1173.6-872.2,1918.1-996c193.6-31.9,764.4-31.9,958,0c628.7,105.8,1179.6,355.3,1656.6,754.5c632.7,526.9,1041.9,1249.5,1181.6,2083.8c31.9,193.6,31.9,764.4,0,958c-81.8,485-261.5,956-507,1321.3c-41.9,61.9-75.8,121.7-75.8,129.7c0,10,45.9,61.9,99.8,115.8l99.8,97.8l139.7-137.7l139.7-139.7l339.3,339.3l339.3,339.3l-674.6,674.6l-672.6,672.6l-337.3-337.3l-337.3-337.3l113.8-107.8c171.6-159.7,171.6-163.7,59.9-277.4c-53.9-53.9-101.8-97.8-109.8-97.8c-8,0-67.9,35.9-133.7,79.8c-139.7,91.8-457.1,253.5-644.7,327.3c-135.7,51.9-501,151.7-560.9,151.7c-31.9,0-35.9,22-35.9,189.6v189.6h199.6H6966v479v479h-958h-958V3616.8z M6646.6,3616.8v-159.7h-638.7h-638.7v159.7v159.7h638.7h638.7V3616.8z M6247.5,2978.1v-159.7h-239.5h-239.5v159.7v159.7h239.5h239.5V2978.1z M3588.9,2792.5l103.8-103.8l-455.1-455.1l-453.1-453.1l-109.8,109.8L2565,2000.1l449.1,449.1c247.5,247.5,453.1,449.1,459.1,449.1C3479.1,2898.3,3531,2850.4,3588.9,2792.5z M9005.8,2465.2c239.5-239.5,435.1-443.1,435.1-455.1c0-10-47.9-65.9-103.8-123.8l-105.8-105.8l-453.1,453.1l-455.1,455.1l103.8,103.8c57.9,57.9,113.8,105.8,125.7,105.8C8562.7,2898.3,8768.3,2702.7,9005.8,2465.2z M6622.7,2441.2c610.8-129.7,1095.8-391.2,1532.9-828.3c441.1-443.1,696.6-916.1,828.3-1544.8c39.9-179.6,45.9-275.4,45.9-602.8c2-331.3-6-421.1-43.9-602.8c-135.7-630.7-389.2-1101.8-830.3-1544.8c-443.1-441.1-914.1-694.6-1544.8-830.3c-181.6-37.9-271.5-45.9-602.8-43.9c-327.3,0-423.1,6-602.8,45.9c-628.7,131.7-1101.8,387.2-1544.9,828.3c-445.1,447.1-712.5,948.1-838.3,1578.8c-55.9,281.4-51.9,888.2,8,1171.6c135.7,630.7,389.2,1101.7,830.3,1544.8c497,497,1087.8,782.4,1808.3,874.2C5840.3,2509.1,6441.1,2479.2,6622.7,2441.2z M3652.7,1830.5l-169.7-169.7l-89.8,89.8l-89.8,89.8l169.7,169.7l169.7,169.7l89.8-89.8l89.8-89.8L3652.7,1830.5z M8632.6,1740.7l-89.8-89.8l-173.7,173.7l-175.6,175.6l89.8,89.8l87.8,89.8l175.6-173.6l175.6-175.6L8632.6,1740.7z"/><path d="M4566.9,1056.1l-113.8-103.8L5020,317.6l566.9-634.7l-29.9-81.8c-59.9-169.7-22-303.4,131.7-455.1c211.6-213.6,427.1-213.6,638.7,0c213.6,211.6,213.6,427.1,0,640.7c-149.7,151.7-275.4,185.6-471,127.7c-35.9-12-125.8,81.8-598.8,614.7c-307.4,347.3-560.9,630.7-566.9,630.7C4684.6,1159.8,4628.8,1114,4566.9,1056.1z M6127.7-414.9c25.9-25.9,39.9-65.9,39.9-119.8c0-105.8-53.9-159.7-159.7-159.7c-105.8,0-159.7,53.9-159.7,159.7c0,53.9,14,93.8,39.9,119.8c25.9,25.9,65.9,39.9,119.8,39.9C6061.8-375,6101.8-389,6127.7-414.9z"/><path d="M100,742.7V583h1117.7h1117.7v159.7v159.7H1217.7H100V742.7z"/><path d="M419.4-55.7v-159.7h958h958v159.7V104h-958h-958V-55.7z"/><path d="M738.7-854v-159.7h798.4h798.4V-854v159.7h-798.4H738.7V-854z"/><path d="M1058-1652.4v-159.7h638.7h638.7v159.7v159.7h-638.7H1058V-1652.4z"/><path d="M1377.4-2450.8v-159.7h479h479v159.7v159.7h-479h-479V-2450.8z"/></g></g>
</svg>