<svg xmlns="http://www.w3.org/2000/svg" viewBox="0 0 24 18"><defs><style>.cls-1{isolation:isolate;}.cls-2{fill:#fff;}</style></defs><title>icon-email</title><g id="Layer_2" data-name="Layer 2"><g id="Layer_1-2" data-name="Layer 1"><g class="cls-1"><path class="cls-2" d="M24,2.25v13.5A2.25,2.25,0,0,1,21.75,18H2.25A2.25,2.25,0,0,1,0,15.75V2.25A2.25,2.25,0,0,1,2.25,0h19.5A2.25,2.25,0,0,1,24,2.25Zm-21.75,0V4.16C3.3,5,5,6.35,8.56,9.15c.79.63,2.35,2.12,3.44,2.1s2.65-1.47,3.44-2.1C19,6.35,20.7,5,21.75,4.16V2.25Zm19.5,13.5V7.05c-1.07.86-2.6,2.06-4.92,3.87C15.77,11.76,14,13.51,12,13.5s-3.81-1.77-4.83-2.58c-2.32-1.81-3.85-3-4.92-3.87v8.7Z"/></g></g></g></svg>