<svg xmlns="http://www.w3.org/2000/svg" viewBox="0 0 27 21"><defs><style>.cls-1{isolation:isolate;}.cls-2{fill:#fff;}</style></defs><title>icon-map</title><g id="Layer_2" data-name="Layer 2"><g id="Layer_1-2" data-name="Layer 1"><g class="cls-1"><path class="cls-2" d="M27,.75V17a1.63,1.63,0,0,1-.94,1.4l-7.12,2.47A3.69,3.69,0,0,1,18,21a3.84,3.84,0,0,1-1-.15L9,18,1,21A.92.92,0,0,1,.75,21,.75.75,0,0,1,0,20.25V4a1.63,1.63,0,0,1,.94-1.4L8.06.15A3,3,0,0,1,9,0a3.84,3.84,0,0,1,.95.15L18,3,26,.05a.92.92,0,0,1,.28,0A.75.75,0,0,1,27,.75ZM8.22,15.89h0V2.46l-6,2.09V18.1Zm2.28.25,6,2.12V4.86l-6-2.12ZM24.75,2.9l-6,2.21h0V18.54l6-2.09Z"/></g></g></g></svg>