<?xml version="1.0" encoding="UTF-8"?>
<svg width="120px" height="91px" viewBox="0 0 120 91" version="1.1" xmlns="http://www.w3.org/2000/svg" xmlns:xlink="http://www.w3.org/1999/xlink">
    <!-- Generator: Sketch 51.2 (57519) - http://www.bohemiancoding.com/sketch -->
    <title>Group 20</title>
    <desc>Created with Sketch.</desc>
    <defs>
        <polygon id="path-1" points="0.511722764 0.506478924 43.1123087 0.506478924 43.1123087 43.1071016 0.511722764 43.1071016"></polygon>
    </defs>
    <g id="Page-1" stroke="none" stroke-width="1" fill="none" fill-rule="evenodd">
        <g id="Desktop-HD-Copy-4" transform="translate(-818.000000, -2427.000000)">
            <g id="Group-20" transform="translate(820.000000, 2425.000000)">
                <g id="Group-25">
                    <path d="M94.9256314,90.5255841 L2.31444044,90.5255841 C1.24765883,90.5255841 0.374837511,89.4282349 0.374837511,88.0870305 L0.374837511,19.5063683 C0.374837511,18.1651638 1.24765883,17.0678147 2.31444044,17.0678147 L94.9256314,17.0678147 C95.9924131,17.0678147 96.8652344,18.1651638 96.8652344,19.5063683 L96.8652344,88.0870305 C96.8652344,89.4282349 95.9924131,90.5255841 94.9256314,90.5255841 Z" id="Stroke-4" stroke="#0086FF" stroke-width="3.5"></path>
                    <g id="Group-24" transform="translate(6.492691, 22.598611)" fill="#0086FF">
                        <path d="M5.04671753,2.61717473 C5.04671753,4.00938386 3.91820585,5.13789554 2.52670558,5.13789554 C1.13449644,5.13789554 0.00598476321,4.00938386 0.00598476321,2.61717473 C0.00598476321,1.22567446 1.13449644,0.0971627763 2.52670558,0.0971627763 C3.91820585,0.0971627763 5.04671753,1.22567446 5.04671753,2.61717473" id="Fill-6"></path>
                        <path d="M12.5802449,2.61717473 C12.5802449,4.00938386 11.4517332,5.13789554 10.0595241,5.13789554 C8.66731495,5.13789554 7.53951213,4.00938386 7.53951213,2.61717473 C7.53951213,1.22567446 8.66731495,0.0971627763 10.0595241,0.0971627763 C11.4517332,0.0971627763 12.5802449,1.22567446 12.5802449,2.61717473" id="Fill-8"></path>
                        <path d="M20.1137723,2.61717473 C20.1137723,4.00938386 18.9852606,5.13789554 17.5930515,5.13789554 C16.2015512,5.13789554 15.0730395,4.00938386 15.0730395,2.61717473 C15.0730395,1.22567446 16.2015512,0.0971627763 17.5930515,0.0971627763 C18.9852606,0.0971627763 20.1137723,1.22567446 20.1137723,2.61717473" id="Fill-10"></path>
                    </g>
                    <g id="Group-16" transform="translate(14.770968, 0.939272)">
                        <g id="Group-18" transform="translate(60.000000, 0.086590)">
                            <g id="Group-9" transform="translate(0.050700, 0.226195)">
                                <mask id="mask-2" fill="white">
                                    <use xlink:href="#path-1"></use>
                                </mask>
                                <g id="Clip-8"></g>
                                <path d="M21.8120655,41.0436272 C11.1877685,41.0436272 2.57519534,32.4308881 2.57519534,21.8067571 C2.57519534,11.182626 11.1877685,2.56988692 21.8120655,2.56988692 C32.4363624,2.56988692 41.0489356,11.182626 41.0489356,21.8067571 C41.0489356,32.4308881 32.4363624,41.0436272 21.8120655,41.0436272 Z" id="Fill-7" stroke="#0086FF" stroke-width="3.5" fill="#FFFFFF" mask="url(#mask-2)"></path>
                            </g>
                            <path d="M29.403606,31.789977 C29.6391405,31.665999 29.90979,31.5783305 30.1082983,31.4070544 C30.4890709,31.0783573 30.8366395,30.7090508 31.184208,30.3435664 C31.6022458,29.9042684 31.6342555,29.4838419 31.2948089,28.97933 C30.9689783,28.4951229 30.6388479,28.0133045 30.2962958,27.5408024 C30.1006541,27.2711083 30.1104482,27.0262576 30.2470868,26.7271814 C30.5600179,26.0423162 30.8538387,25.3471791 31.1197108,24.6429646 C31.2410612,24.321195 31.4137705,24.1317642 31.7582336,24.0801663 C32.308849,23.9975143 32.8568368,23.895752 33.4050635,23.7980506 C34.0832402,23.6776557 34.3624894,23.346092 34.3655948,22.6516716 C34.3675058,22.2138069 34.3577118,21.7757033 34.3531731,21.3375998 C34.345529,20.6209636 34.0820458,20.3022994 33.3689928,20.1701995 C32.8343822,20.0713037 32.2983384,19.9798131 31.7611001,19.8966833 C31.422609,19.8443689 31.2365225,19.6628211 31.1156498,19.3384238 C30.8574219,18.64472 30.5800837,17.9560326 30.2669137,17.2859778 C30.1111648,16.9529809 30.1223921,16.6933197 30.3354719,16.4040376 C30.6656023,15.9551844 30.9802056,15.4948652 31.2914646,15.0326348 C31.655038,14.4927689 31.6165785,14.0773588 31.1622312,13.6065289 C30.8485834,13.2818927 30.5284859,12.9632285 30.2045664,12.6488641 C29.7105652,12.1687179 29.3305091,12.1376636 28.7500339,12.530858 C28.2995086,12.8359061 27.8444446,13.1356989 27.4113575,13.464396 C27.0950821,13.7044691 26.8203716,13.7025581 26.4627701,13.5284155 C25.8218585,13.2166788 25.1601645,12.9381462 24.4865265,12.7069116 C24.0897489,12.5705119 23.9012736,12.3533711 23.8480036,11.9510993 C23.7784899,11.4255662 23.6805497,10.9033773 23.5823705,10.3821439 C23.4571981,9.71901658 23.1363839,9.45792214 22.4596405,9.4538612 C21.9950214,9.45099466 21.5301634,9.4493225 21.0655443,9.45433896 C20.4466096,9.46102756 20.1355895,9.70802816 20.0130447,10.3157356 C19.898144,10.8876113 19.7985316,11.4628312 19.7089521,12.0392456 C19.655921,12.3801255 19.4810618,12.5585679 19.1518869,12.6789628 C18.444567,12.9379073 17.7479967,13.2302949 17.0636091,13.545137 C16.7614275,13.6841645 16.5189656,13.6867921 16.2518992,13.4944947 C15.777725,13.1536148 15.2973399,12.8218123 14.8133716,12.4950262 C14.294527,12.1441133 13.9013326,12.1739732 13.4560627,12.6010883 C13.1015667,12.9412516 12.7547148,13.2895368 12.413596,13.6430773 C11.9814644,14.0909749 11.9461103,14.4851248 12.2920067,14.9989529 C12.6106709,15.4721717 12.9312461,15.9444349 13.2687818,16.4042764 C13.4806672,16.6933197 13.4961943,16.9515476 13.3399676,17.2852612 C13.0205868,17.9674988 12.7363211,18.6676523 12.4723601,19.3733 C12.3572206,19.6814536 12.1993217,19.8632403 11.8665637,19.9141215 C11.2901493,20.0022677 10.7163626,20.1104798 10.1432926,20.2198862 C9.53797392,20.3355035 9.26899648,20.6286077 9.23913664,21.2473036 C9.21524877,21.7372439 9.21763756,22.2300507 9.23603122,22.7207076 C9.26111349,23.3850293 9.55230665,23.6895996 10.2240336,23.8042614 C10.7600775,23.895752 11.2949269,23.99417 11.8316874,24.0804052 C12.1663565,24.1339141 12.3536374,24.3049512 12.4766599,24.6357983 C12.7391876,25.3416849 13.037786,26.0358664 13.3581224,26.7178652 C13.4992997,27.0188524 13.506705,27.2596421 13.313691,27.5293362 C12.9661224,28.0144989 12.6273924,28.506589 12.2977398,29.0041734 C11.9480213,29.5318565 11.9731036,29.9061794 12.4006965,30.3676931 C12.7344101,30.7279222 13.0841285,31.0742964 13.4414911,31.4111154 C13.9063491,31.849219 14.2976324,31.8726291 14.8377372,31.5069058 C15.3212277,31.1796419 15.8008962,30.8468838 16.2757871,30.5071983 C16.5165768,30.3349668 16.7432728,30.3230228 17.0179833,30.4427011 C17.7451301,30.7594542 18.4784878,31.0642635 19.2204451,31.3439905 C19.5202379,31.4567412 19.6702537,31.632556 19.7187461,31.9409484 C19.8116699,32.5302622 19.9165377,33.1179038 20.0295273,33.7036345 C20.1372616,34.2616552 20.4862634,34.5504595 21.0588557,34.5612091 C21.5234748,34.5700476 21.9883328,34.5657478 22.4529519,34.5624035 C23.1626606,34.557387 23.4856246,34.2767045 23.6096027,33.5672347 C23.705393,33.0187692 23.8145606,32.4724535 23.8972127,31.922077 C23.9445106,31.6050849 24.1179366,31.4459917 24.4072187,31.3332409 C25.1214661,31.0547083 25.8316525,30.7635152 26.5282229,30.4443732 C26.8301656,30.3063013 27.0740608,30.3070179 27.3411272,30.4990764 C27.8148237,30.8401952 28.2937755,31.1743866 28.781327,31.4954396 C28.9533196,31.6086681 29.1563666,31.6750764 29.403606,31.789977 M28.127277,32.4132116 C27.7250053,32.1855602 27.3824532,31.730974 26.9718207,31.6736431 C26.5750431,31.6179844 26.1343119,31.979169 25.6959694,32.0890532 C25.1594478,32.2230642 24.8520109,32.4762756 24.8405447,33.070367 C24.8338561,33.4227131 24.7335271,33.7772091 24.6472918,34.1238221 C24.4208348,35.0325168 23.6638282,35.6497794 22.7221682,35.6837002 C22.1388264,35.7049604 21.5538124,35.7047215 20.9702317,35.6894333 C19.8776004,35.6607678 19.1074554,34.9823522 18.909425,33.8964096 C18.8308339,33.4659501 18.7706365,33.0314297 18.6686352,32.6067034 C18.6382976,32.4810532 18.5164695,32.3343816 18.3984634,32.2799173 C17.9302611,32.063732 17.451787,31.8664182 16.9661466,31.6937089 C16.8316579,31.6459332 16.6276555,31.6569216 16.5082161,31.7288241 C16.1338931,31.9540867 15.7884745,32.2266473 15.42514,32.4705425 C14.5174008,33.0796832 13.5210377,33.0123194 12.7303491,32.2698844 C12.2951121,31.8614018 11.8696691,31.4393031 11.4731304,30.9937943 C10.8350854,30.2757248 10.764855,29.3433812 11.267217,28.5266548 C11.5240116,28.108856 11.8211767,27.7151838 12.0696106,27.2928463 C12.1398409,27.1734069 12.1539348,26.972271 12.1059202,26.84041 C11.934883,26.3681467 11.7411524,25.9020943 11.5223395,25.4501358 C11.4552145,25.3120639 11.2949269,25.1649146 11.1506442,25.128605 C10.676231,25.0096434 10.1855741,24.9551791 9.70757781,24.8474448 C8.83543161,24.6508476 8.19666991,23.9671767 8.12428966,23.0740092 C8.0688698,22.3886661 8.06719764,21.6925735 8.11664554,21.0069916 C8.18974243,19.9951014 8.85669181,19.3009198 9.85639926,19.1086224 C10.2988026,19.0233427 10.7474169,18.9655341 11.1852816,18.8620996 C11.308543,18.8329564 11.4492426,18.7068284 11.5037069,18.5890612 C11.7263419,18.108915 11.9308221,17.6189747 12.1133254,17.1218681 C12.1572791,17.0024288 12.1348245,16.814909 12.0669829,16.7057414 C11.8292986,16.3232966 11.5498105,15.9668895 11.3016155,15.5906555 C10.7056131,14.6867384 10.7959093,13.6798646 11.5445552,12.8968202 C11.9114729,12.5129421 12.2869902,12.136947 12.6711072,11.7702681 C13.4484186,11.0285497 14.4235215,10.933476 15.330544,11.504635 C15.6334422,11.6952602 15.9485233,11.874897 16.2218005,12.1030262 C16.5588584,12.3846642 16.864862,12.4279013 17.2473069,12.1878282 C17.5017127,12.0282572 17.7952946,11.9033236 18.0879211,11.8390652 C18.5558845,11.7368251 18.7285938,11.461398 18.755826,11.0120671 C18.7749363,10.6965083 18.852333,10.3840549 18.9103805,10.0713627 C19.0967059,9.07069973 19.7806157,8.4020782 20.794417,8.31512634 C21.4401061,8.25994536 22.096306,8.25922872 22.7427118,8.30461568 C23.8136051,8.38010135 24.5104143,9.04824513 24.7117891,10.1169885 C24.8028019,10.5988069 24.7497708,11.1845375 25.0127763,11.5347337 C25.2592991,11.863192 25.860318,11.9035625 26.2623509,12.1426801 C26.7133539,12.4111798 27.0654611,12.394936 27.4569833,12.0382901 C27.7383825,11.7817343 28.0747237,11.5794041 28.405093,11.3840013 C29.1308065,10.9544973 30.0762885,11.0218611 30.7097949,11.5796429 C31.2066626,12.0170299 31.6820313,12.4847544 32.1230014,12.9782778 C32.7978338,13.7336123 32.8460873,14.7005934 32.2890221,15.5467018 C32.0336607,15.934402 31.7443786,16.3001253 31.499289,16.6940363 C31.4338363,16.7996207 31.4290587,16.9876183 31.473729,17.1094464 C31.6469161,17.5817096 31.8728954,18.0346237 32.035094,18.5099924 C32.1187016,18.754843 32.251757,18.8365396 32.4865748,18.8699826 C32.9323225,18.9335243 33.3766369,19.0140265 33.8178459,19.1057559 C34.8400079,19.3188357 35.4931024,20.1403396 35.4868915,21.1840007 C35.4837861,21.7281665 35.4899969,22.2725711 35.4825917,22.8169757 C35.4687367,23.8140555 34.8075204,24.6288708 33.8336119,24.8374119 C33.3799812,24.9343967 32.9222896,25.0168098 32.4629258,25.0791572 C32.2331245,25.1102114 32.1230014,25.2093461 32.0444103,25.4255313 C31.8769563,25.8856117 31.6925419,26.3413923 31.4794621,26.7816458 C31.3760276,26.9956811 31.4030209,27.1421138 31.5336876,27.3193618 C31.7935876,27.671469 32.044888,28.0307426 32.2849612,28.3964659 C32.8792914,29.302294 32.8162274,30.2563757 32.0859752,31.0606803 C31.6760593,31.5121611 31.2350892,31.9368874 30.7945968,32.3594639 C30.412152,32.7261427 29.9312891,32.8603926 29.1821655,32.8938356 C28.9530808,32.7918344 28.521188,32.6360855 28.127277,32.4132116 Z" id="Fill-10" stroke="#0086FF" stroke-width="2" fill="#0086FF"></path>
                            <path d="M20.4151185,24.8266681 L18.3047684,23.0293446 C17.9825688,22.7547297 17.9435838,22.2708569 18.2181987,21.9486573 C18.4928137,21.6264577 18.9763998,21.5874727 19.2988861,21.8620877 L20.4303112,22.82582 L24.341998,19.5940775 C24.6684975,19.3246224 25.1515103,19.3704871 25.4212521,19.6969865 C25.690994,20.0234859 25.6448426,20.5064987 25.3183432,20.7762406 L20.4151185,24.8266681 Z" id="Fill-16" stroke="#0086FF" stroke-width="0.9216" fill="#0086FF"></path>
                        </g>
                        <path d="M57.6098364,61.1171015 L51.6763231,50.8397993 C51.3405932,50.2582853 50.5010496,50.2582853 50.1651738,50.8397993 L44.2316605,61.1171015 L39.9110506,68.6006872 L31.6962354,54.3721801 L21.9600663,37.508856 C21.5835181,36.8567847 20.6422205,36.8567847 20.2656723,37.508856 L10.5296491,54.3721801 L0.793625799,71.2356499 C0.417077599,71.887867 0.887799294,72.7030654 1.64074992,72.7030654 L21.1129422,72.7030654 L39.0535761,72.7030654 L40.5851345,72.7030654 L50.9207485,72.7030654 L62.7879209,72.7030654 C63.4595266,72.7030654 63.8793713,71.9760635 63.5434955,71.3944037 L57.6098364,61.1171015 Z" id="Fill-1" stroke="#0086FF" stroke-width="3.5" fill="#FFFFFF" stroke-linejoin="round"></path>
                        <path d="M41.0997386,48.7768226 C41.0997386,50.2809291 39.880296,51.5002059 38.3763554,51.5002059 C36.872083,51.5002059 35.6528062,50.2809291 35.6528062,48.7768226 C35.6528062,47.2727161 36.872083,46.0534393 38.3763554,46.0534393 C39.880296,46.0534393 41.0997386,47.2727161 41.0997386,48.7768226" id="Fill-3" fill="#0086FF"></path>
                    </g>
                </g>
            </g>
        </g>
    </g>
</svg>